<?xml version="1.0" encoding="UTF-8"?>
<svg id="Layer_1" xmlns="http://www.w3.org/2000/svg" version="1.1" viewBox="0 0 32 32">
  <!-- Generator: Adobe Illustrator 29.0.0, SVG Export Plug-In . SVG Version: 2.1.0 Build 186)  -->
  <defs>
    <style>
      .st0 {
        fill: #fff;
      }
    </style>
  </defs>
  <path class="st0" d="M25.7,9.1h.2l.2.2v.2c0,0,0,11.3,0,11.3v.4c0,0-.2.5-.2.5l-.2.4-.2.2-.3.3-.2.2-.4.3-.4.2-.5.2-.6.2-.5.2h-.4c0,.1-.3.2-.3.2h-.3c0,0-.5.2-.5.2l-.8.2-1.5.4-1,.3-2.2.6-1.6.4-1.2.3-1.1.3h-.2s-.4,0-.4,0h-.2c0,0-.2-.2-.2-.2l-.2-.2v-.3c-.1,0-.2-.2-.2-.2v-7.4s0-1.4,0-1.4v-2.6s0-.4,0-.4l.2-.5.2-.3.2-.3.2-.2.4-.2.6-.2h.4c0-.1.4-.2.4-.2l1.2-.3h.5c0-.1,1.1-.4,1.1-.4l1.6-.4.8-.2h.5c0-.1,2.8-.8,2.8-.8l.8-.2.6-.2h.4c0-.1.7-.3.7-.3h.5c0-.1.2-.2.2-.2h.5c0-.1.3-.2.3-.2ZM24.1,11.1h-.1c0,0,0,.1,0,.1v.2s0,.2,0,.2h.1c0,.1.3.1.3.1l.2-.2h0v-.3h0c0-.1-.2-.2-.2-.2h-.2ZM22.5,12.1h-.2c0,0-.2.3-.2.3l-.2.3h0v.2h-.1c0-.1-.3-.4-.3-.4h-.1c0,0-.3,0-.3,0l-.2.2v.2c-.1,0-.2,0-.2,0v.4c.1,0,.4.3.4.3h0c0,0,0,.2,0,.2l-.3.3v.2c-.1,0-.2.1-.2.1v.3c.1,0,.2.2.2.2h.1c0,0,.2,0,.2,0h.2c0-.1.2-.2.2-.2l.2-.2h.1v-.2h.1s.2.2.2.2l.2.2h.2s.2,0,.2,0l.2-.2v-.2c.1,0,0-.2,0-.2v-.2c-.1,0-.4-.3-.4-.3h0c0,0,.1-.1.1-.1l.2-.2h0c0,0,0,0,0,0v-.2c.1,0,.1-.2.1-.2v-.2c-.1,0-.3-.1-.3-.1h-.2c0,0-.1,0-.1,0ZM12.5,15h-.1c0,.1,0,.2,0,.2v1.2s.5,0,.5,0l.5-.2h.2c0,0,.1-.2.1-.2v-.3h-.2c0-.1-.3-.3-.3-.3h-.2c0-.1-.4-.3-.4-.3h-.1ZM17.2,15.5h-.5c0,0-.5.3-.5.3l-.4.2-.3.2-.3.3-.3.3-.3.4-.2.3-.2.5h0c0,.1-.3.2-.3.2l-.4.2-.3.2-.2.2-.2.3-.2.3-.2.5v.3c0,0,0,.5,0,.5v.6c0,0,.2.3.2.3l.2.3.2.3.2.2.4.2.4.2h.2c0,0,.8,0,.8,0h.4c0,0,.4-.2.4-.2h.4c0-.1.5-.2.5-.2h.4c0-.1.5-.3.5-.3h.3c0-.1.5-.2.5-.2l.8-.2.8-.2h.4c0-.1.5-.3.5-.3h.4c0-.1.7-.3.7-.3l.4-.2.4-.2.3-.2.2-.2.3-.4.2-.3.2-.5v-.4c0,0,0-.3,0-.3v-.4c0,0-.3-.5-.3-.5l-.2-.3-.2-.3-.3-.2-.4-.2h-.3c0-.1-.2-.1-.2-.1h-1.2c0,.1-.4.3-.4.3l-.4.2-.2.2h0c0-.1-.2-.4-.2-.4l-.3-.3-.3-.2-.3-.2-.5-.2h-.2c0,0-.3,0-.3,0h-.6ZM12.9,24.1h-.2c0,.1,0,.2,0,.2v.2s0,.2,0,.2h.1c0,0,.2.1.2.1h.2c0-.1,0-.3,0-.3v-.2h0c0-.1-.2-.2-.2-.2h-.2Z"/>
  <path class="st0" d="M22.4,7.6h.4l.3.2h.2c0,.1.2.4.2.4h0c0,.1,0,.2,0,.2h-.3c0,.1-3.4,1-3.4,1l-.6.2-.8.2-1,.3-1,.2-.7.2h-.4c0,.1-.4.2-.4.2h-.2s-.5,0-.5,0h-.3c0,0-.3-.3-.3-.3l-.2-.3-.2-.3-.2-.3-.3-.2h-.2c0-.1-.3-.2-.3-.2h-1.2c0,0-2.1.6-2.1.6l-.6.2h-.3c0,.1-.4.3-.4.3l-.3.3h-.1c0,.1-.3.4-.3.4l-.2.3-.2.5v.3c0,0,0,11.3,0,11.3v.2c0,0-.2,0-.2,0h-.3c0-.1-.2-.4-.2-.4v-.3c-.1,0-.2-.2-.2-.2v-.2s0-12.4,0-12.4v-.2c.1,0,.3-.1.3-.1h.2c0,0,.5-.2.5-.2h.4c0-.1.4-.2.4-.2l.6-.2,2-.5.8-.2.8-.2h.6c0-.1.3-.2.3-.2h.4c0,0,.2.2.2.2h.1c0,.1.2.4.2.4l.3.5v.2c.1,0,.3.1.3.1h0s.4,0,.4,0h.4c0-.1.4-.2.4-.2l.6-.2h.5c0-.1,1.5-.5,1.5-.5l.6-.2,1-.2h.5c0-.1.6-.3.6-.3h.6c0-.1.7-.3.7-.3h.2Z"/>
  <path class="st0" d="M17.2,16.9h.8c0,0,.4.3.4.3l.3.2.2.2.2.3v.4c.1,0,.2.2.2.2h0c0,0,.3,0,.3,0h.3c0-.1.4-.5.4-.5l.4-.3.4-.2h.4c0,0,.4,0,.4,0l.3.2.2.2v.3c.1,0,.1.5.1.5v.3c-.1,0-.3.2-.3.2l-.2.2-.3.2-.6.2h-.4c0,.1-.3.2-.3.2h-.4c0,.1-.5.2-.5.2l-.7.2-1.1.3h-.5c0,.1-2,.7-2,.7h-.4c0,0-.3,0-.3,0h-.3c0,0-.3-.3-.3-.3v-.2c-.1,0-.2-.2-.2-.2v-.3l.2-.4.2-.2.2-.2.3-.2h.3c0,0,.4,0,.4,0v-.3s.1-.4.1-.4v-.3c0,0,.3-.4.3-.4l.2-.3.3-.3.3-.2h.3c0-.1.2-.2.2-.2h.2Z"/>
  <path class="st0" d="M11.8,10.5h.4c0,0,.2.2.2.2l.2.3h0c0,.1-.3.2-.3.2l-.6.2h-.4c0,0-.7.3-.7.3l-.4.2-.3.2-.3.3-.2.3-.2.4-.2.4v.3c0,0,0,.4,0,.4v10.9s-.1,0-.1,0h-.5c0-.1-.2-.3-.2-.3v-.3c-.1,0-.2-.3-.2-.3v-11.7s.2-.5.2-.5l.2-.3v-.2c.1,0,.3-.2.3-.2l.3-.2.4-.2h.5c0-.1,1.5-.5,1.5-.5h.3Z"/>
  <path class="st0" d="M19.5,4.5h.7c0,.1.2.3.2.3l.2.2v.2c.1,0,.1.1.1.1l-.5.2-1.6.4-.6.2-.9.2-1.5.4-.7.2-1.6.4-.7.2-1.6.4-.8.2-2.9.7h-.5c0,.1-.2.1-.2.1l-.2-.2v-.2c-.1,0-.1-.2-.1-.2v-.3c.1,0,.3-.1.3-.1h.3c0-.1.7-.3.7-.3l3.6-.9h.4c0-.1.5-.2.5-.2l.7-.2,1.2-.3h.4c0-.1,4.5-1.2,4.5-1.2l.8-.2h.1Z"/>
</svg>