<?xml version="1.0" encoding="UTF-8"?>
<svg xmlns="http://www.w3.org/2000/svg" version="1.1" viewBox="0 0 114 32">
  <!-- Generator: Adobe Illustrator 29.0.0, SVG Export Plug-In . SVG Version: 2.1.0 Build 186)  -->
  <defs>
    <style>
      .st0 {
        fill: #fff;
      }

      .st1 {
        fill: none;
      }

      .st2 {
        isolation: isolate;
      }

      .st3 {
        mix-blend-mode: hard-light;
      }
    </style>
  </defs>
  <g class="st2">
    <g id="Layer_1">
      <g class="st3">
        <rect class="st1" width="27" height="32"/>
      </g>
      <g>
        <path class="st0" d="M38.3,12.6c1.2,2.1,1.7,2.9,2,3.4h0c.4-.6,1.1-1.8,2.1-3.4h2.8l-3.4,4.9,3.4,5.4h-2.8c-1-1.8-1.7-3-2-3.7h0c-.3.6-1,1.9-2.1,3.7h-2.7l3.3-5.1-3.2-5.2h2.8Z"/>
        <path class="st0" d="M46.9,9h5.3c4,0,6.6,2.7,6.6,6.8s-2.6,7.1-6.7,7.1h-5.2v-13.8ZM49.5,20.7h2.5c2.9,0,4.2-2.1,4.2-4.9s-1.2-4.7-4.1-4.7h-2.5v9.6Z"/>
        <path class="st0" d="M70.4,17.7c0,3.1-1.8,5.4-5,5.4s-4.9-2.3-4.9-5.4,1.9-5.4,5.1-5.4,4.9,2.1,4.9,5.4ZM63,17.7c0,2.1.9,3.4,2.5,3.4s2.4-1.3,2.4-3.4-.9-3.4-2.5-3.4-2.4,1.2-2.4,3.4Z"/>
        <path class="st0" d="M81.2,19.6c-.4,1.7-1.6,3.5-4.5,3.5s-4.8-2.2-4.8-5.3,1.8-5.4,4.9-5.4,4.3,2.4,4.4,3.6h-2.4c-.2-.9-.7-1.6-2-1.6s-2.3,1.3-2.3,3.4.9,3.4,2.3,3.4,1.7-.6,2-1.5h2.5Z"/>
        <path class="st0" d="M84.9,19.8c.2.9,1,1.4,2.1,1.4s1.7-.5,1.7-1.2-.5-1.1-2.1-1.5c-3.2-.8-3.8-1.8-3.8-3.2s1.1-3,4-3,4,1.6,4.1,3.1h-2.4c-.1-.5-.4-1.3-1.9-1.3s-1.5.5-1.5,1,.4.9,2.1,1.3c3.3.8,3.9,1.9,3.9,3.4s-1.3,3.2-4.3,3.2-4.3-1.5-4.5-3.3h2.5Z"/>
      </g>
    </g>
    <g id="Layer_3">
      <path class="st0" d="M28.6,7.2h.2l.3.2v.2c0,0,0,12.9,0,12.9v.4c0,0-.2.6-.2.6l-.2.5-.2.3-.3.4-.3.2-.5.3-.4.2-.5.2-.7.2-.6.2h-.4c0,.1-.4.2-.4.2h-.3c0,0-.6.2-.6.2l-.9.2-1.7.5-1.2.3-2.5.7-1.8.5-1.4.4-1.3.4h-.2s-.4,0-.4,0h-.3c0,0-.3-.3-.3-.3l-.2-.2v-.3c-.1,0-.2-.2-.2-.2v-8.4s0-1.6,0-1.6v-2.9s0-.4,0-.4l.2-.5.2-.4.3-.3.2-.2.5-.3.7-.2h.5c0-.1.4-.2.4-.2l1.4-.4h.6c0-.1,1.3-.5,1.3-.5l1.8-.5.9-.2h.6c0-.1,3.2-.9,3.2-.9l.9-.2.7-.2h.5c0-.1.8-.3.8-.3h.6c0-.1.3-.2.3-.2h.6c0-.1.4-.2.4-.2ZM26.8,9.4h-.1c0,0,0,.1,0,.1v.2s0,.2,0,.2h.1c0,.1.3.1.3.1l.2-.2h0v-.3h0c0-.1-.2-.2-.2-.2h-.2ZM25,10.6h-.2c0,0-.2.3-.2.3l-.3.3h0v.2h-.1c0-.1-.4-.5-.4-.5h-.1c0,0-.3,0-.3,0l-.2.2v.2c-.1,0-.2,0-.2,0v.4c.1,0,.4.3.4.3h0c0,0,0,.2,0,.2l-.3.4v.2c-.1,0-.2.1-.2.1v.3c.1,0,.3.2.3.2h.1c0,0,.2,0,.2,0h.2c0-.1.2-.3.2-.3l.2-.2h.1v-.2h.1s.2.3.2.3l.3.2h.2s.2,0,.2,0l.2-.2v-.2c.1,0,0-.2,0-.2v-.2c-.1,0-.5-.4-.5-.4h0c0,0,.1-.1.1-.1l.3-.3h0c0,0,0,0,0,0v-.3c.1,0,.1-.2.1-.2v-.2c-.1,0-.3-.1-.3-.1h-.2c0,0-.1,0-.1,0ZM13.6,13.9h-.1c0,.1,0,.2,0,.2v1.4s.6,0,.6,0l.6-.2h.2c0,0,.1-.2.1-.2v-.4h-.2c0-.1-.4-.4-.4-.4h-.2c0-.1-.5-.4-.5-.4h-.1ZM18.9,14.5h-.6c0,0-.6.3-.6.3l-.5.3-.4.3-.4.3-.3.3-.3.4-.2.3-.2.6h0c0,.1-.3.2-.3.2l-.4.2-.3.2-.3.2-.2.3-.2.3-.2.5v.4c0,0,0,.5,0,.5v.7c0,0,.2.3.2.3l.2.4.2.3.3.3.4.3.4.2h.3c0,0,.9,0,.9,0h.5c0,0,.4-.2.4-.2h.4c0-.1.6-.3.6-.3h.5c0-.1.6-.3.6-.3h.4c0-.1.6-.3.6-.3l.9-.2.9-.2h.5c0-.1.6-.3.6-.3h.5c0-.1.8-.4.8-.4l.5-.2.4-.3.3-.3.2-.2.3-.4.2-.4.2-.6v-.5c0,0,0-.4,0-.4v-.5c0,0-.3-.6-.3-.6l-.2-.3-.3-.3-.4-.3-.4-.2h-.4c0-.1-.2-.1-.2-.1h-1.4c0,.1-.4.3-.4.3l-.4.2-.3.2h0c0-.1-.3-.4-.3-.4l-.3-.3-.3-.2-.4-.2-.6-.2h-.3c0,0-.3,0-.3,0h-.7ZM14,24.3h-.2c0,.1,0,.2,0,.2v.2s0,.2,0,.2h.1c0,0,.2.1.2.1h.2c0-.1,0-.3,0-.3v-.3h0c0-.1-.2-.2-.2-.2h-.2Z"/>
      <path class="st0" d="M24.9,5.4h.4l.4.2h.2c0,.1.2.4.2.4h0c0,.1,0,.3,0,.3h-.3c0,.1-3.9,1.1-3.9,1.1l-.7.2-.9.2-1.2.3-1.1.3-.8.2h-.5c0,.1-.4.2-.4.2h-.2s-.5,0-.5,0h-.3c0,0-.3-.4-.3-.4l-.2-.3-.2-.4-.2-.3-.3-.2h-.2c0-.1-.3-.2-.3-.2h-1.3c0,0-2.4.7-2.4.7l-.7.2h-.4c0,.1-.4.4-.4.4l-.3.3h-.1c0,.1-.3.5-.3.5l-.2.3-.2.5v.4c0,0,0,12.8,0,12.8v.2c0,0-.3,0-.3,0h-.3c0-.1-.3-.4-.3-.4v-.3c-.1,0-.2-.2-.2-.2v-.2s0-14.1,0-14.1v-.2c.1,0,.3-.1.3-.1h.3c0,0,.6-.2.6-.2h.4c0-.1.4-.2.4-.2l.7-.2,2.3-.6.9-.2.9-.2h.7c0-.1.3-.2.3-.2h.4c0,0,.2.2.2.2h.1c0,.1.3.5.3.5l.3.6v.2c.1,0,.4.1.4.1h0s.4,0,.4,0h.5c0-.1.4-.2.4-.2l.7-.2h.6c0-.1,1.8-.6,1.8-.6l.7-.2,1.1-.3h.6c0-.1.7-.3.7-.3h.6c0-.1.8-.4.8-.4h.3Z"/>
      <path class="st0" d="M19,16.1h.9c0,0,.5.3.5.3l.3.3.2.2.2.3v.5c.1,0,.3.2.3.2h0c0,0,.4,0,.4,0h.3c0-.1.4-.6.4-.6l.5-.4.5-.2h.5c0,0,.4,0,.4,0l.3.2.2.3v.3c.1,0,.1.5.1.5v.4c-.1,0-.4.3-.4.3l-.2.2-.3.2-.7.2h-.5c0,.1-.4.2-.4.2h-.5c0,.1-.6.3-.6.3l-.9.2-1.3.3h-.6c0,.1-2.3.8-2.3.8h-.5c0,0-.3,0-.3,0h-.3c0,0-.3-.4-.3-.4v-.2c-.1,0-.2-.3-.2-.3v-.4l.2-.5.2-.2.2-.2.4-.2h.4c0,0,.5,0,.5,0v-.3s.1-.4.1-.4v-.4c0,0,.3-.5.3-.5l.3-.4.3-.4.4-.2h.3c0-.1.2-.2.2-.2h.2Z"/>
      <path class="st0" d="M12.8,8.7h.5c0,0,.3.3.3.3l.3.3h0c0,.1-.4.2-.4.2l-.6.2h-.4c0,0-.8.3-.8.3l-.5.3-.3.2-.3.3-.3.4-.3.5-.2.5v.3c0,0,0,.4,0,.4v12.4s-.1,0-.1,0h-.5c0-.1-.2-.4-.2-.4v-.3c-.1,0-.2-.3-.2-.3v-13.4s.2-.5.2-.5l.2-.3v-.2c.1,0,.4-.2.4-.2l.3-.2.5-.2h.6c0-.1,1.8-.6,1.8-.6h.4Z"/>
      <path class="st0" d="M21.6,2h.8c0,.1.2.3.2.3l.2.2v.2c.1,0,.1.1.1.1l-.6.2-1.9.5-.7.2-1,.3-1.8.4-.9.2-1.9.5-.9.2-1.9.5-.9.2-3.3.8h-.6c0,.1-.2.1-.2.1l-.3-.2v-.2c-.1,0-.1-.2-.1-.2v-.3c.1,0,.3-.1.3-.1h.4c0-.1.9-.4.9-.4l4.1-1h.5c0-.1.6-.3.6-.3l.8-.2,1.4-.4h.4c0-.1,5.2-1.4,5.2-1.4l.9-.2h.1Z"/>
    </g>
  </g>
</svg>